<?xml version="1.0" encoding="utf-8"?>
<!-- Generator: Adobe Illustrator 24.3.0, SVG Export Plug-In . SVG Version: 6.00 Build 0)  -->
<svg version="1.1" id="Livello_1" xmlns="http://www.w3.org/2000/svg" xmlns:xlink="http://www.w3.org/1999/xlink" x="0px" y="0px"
	 viewBox="0 0 52 52" style="enable-background:new 0 0 52 52;" xml:space="preserve">
<style type="text/css">
	.st0{display:none;fill:#BC966A;}
	.st1{fill:none;stroke:#BC966A;stroke-width:1.5;stroke-linecap:round;stroke-miterlimit:10;}
	.st2{fill:#BC966A;}
</style>
<circle class="st0" cx="26" cy="26" r="26"/>
<g>
	<line class="st1" x1="10.2" y1="24.6" x2="10.2" y2="30.9"/>
	<g>
		<path class="st2" d="M30.9,11.2c5.4,0.1,10,6,10.9,10c0.2,0.9,0.1,1.3,0,1.6c-0.1,0.2-0.6,0.3-1,0.3c-0.1,0-0.2,0-0.2,0h-0.1h-0.1
			H26.9h-2.2H11.2h-0.1H11c0,0-0.1,0-0.2,0c-0.4,0-0.9-0.1-1-0.3c-0.1-0.2-0.2-0.7,0-1.6c0.9-4,5.7-9.9,10.9-10h5.1L30.9,11.2
			 M30.9,9.6h-5.1h-5.1C14.3,9.7,9.1,16.6,8,20.9c-0.8,3.5,1.7,3.9,2.7,3.9c0.2,0,0.4,0,0.4,0h13.5h2.2h13.5c0,0,0.1,0,0.4,0
			c1,0,3.5-0.3,2.7-3.9C42.5,16.6,37.3,9.8,30.9,9.6L30.9,9.6z"/>
	</g>
	<line class="st1" x1="41.4" y1="24.6" x2="41.4" y2="30.9"/>
	<path class="st1" d="M7.4,26.7c2.1,0,2.2,2.1,4.7,2.1s2.7-2.1,4.4-2.1c2.1,0,3.1,2.1,4.8,2c1.7,0,2.5-2,4.6-2s2.2,2.1,4.7,2.1
		s2.1-2.1,4.6-2.1c2.5,0,1.7,1.9,4.6,1.9c2.9,0,2.6-1.9,5-1.9"/>
	<path class="st1" d="M42.6,31.2H25.8H8.9c0,0-1.9-0.1-1.9,1.6c0,1.7,1.9,1.7,1.9,1.7h16.9h16.9c0,0,1.9,0.2,1.9-1.7
		C44.4,31.1,42.6,31.2,42.6,31.2z"/>
	<path class="st1" d="M39.3,34.9c-4,0-13.1,0-13.5,0l0,0c-0.4,0-9.5,0-13.5,0c-3.6,0-3.6,0.7-3.3,2c0.1,1,0.9,1.7,1.5,2.3
		c1.7,1.7,3.9,1.8,3.9,1.8h11.5l0,0h10c0,0,3.3,0.1,5.2-1.8c0.7-0.7,1.3-1.3,1.5-2.3C42.9,35.5,42.8,34.9,39.3,34.9z"/>
	<line class="st1" x1="15.1" y1="19.5" x2="16.6" y2="17.9"/>
	<line class="st1" x1="20.4" y1="16.5" x2="22" y2="14.9"/>
	<line class="st1" x1="24.2" y1="19.5" x2="25.8" y2="17.9"/>
	<line class="st1" x1="29.7" y1="16.5" x2="31.3" y2="14.9"/>
	<line class="st1" x1="33.4" y1="19.5" x2="34.9" y2="17.9"/>
</g>
</svg>
