<?xml version="1.0" encoding="utf-8"?>
<!-- Generator: Adobe Illustrator 24.3.0, SVG Export Plug-In . SVG Version: 6.00 Build 0)  -->
<svg version="1.1" id="Livello_1" xmlns="http://www.w3.org/2000/svg" xmlns:xlink="http://www.w3.org/1999/xlink" x="0px" y="0px"
	 viewBox="0 0 52 52" style="enable-background:new 0 0 52 52;" xml:space="preserve">
<style type="text/css">
	.st0{display:none;fill:#FECB4F;}
	.st1{fill:#FECB4F;}
	.st2{fill:#FFFFFF;}
</style>
<circle class="st0" cx="26" cy="26" r="26"/>
<g>
	<g>
		<path class="st1" d="M16.4,12.1v9.4H14v-9.4L16.4,12.1 M16.4,10.8H14c-0.7,0-1.2,0.5-1.2,1.2v9.4c0,0.7,0.5,1.2,1.2,1.2h2.4
			c0.7,0,1.2-0.5,1.2-1.2v-9.4C17.6,11.3,17.1,10.8,16.4,10.8L16.4,10.8z"/>
	</g>
	<g>
		<path class="st1" d="M19.9,8.5v12.7h-2.3V8.5H19.9 M19.9,7.3h-2.3c-0.7,0-1.2,0.5-1.2,1.2v12.7c0,0.7,0.5,1.2,1.2,1.2h2.3
			c0.7,0,1.2-0.5,1.2-1.2V8.5C21.1,7.9,20.7,7.3,19.9,7.3L19.9,7.3z"/>
	</g>
	<g>
		<path class="st1" d="M23.6,6.4V26h-2.4V6.4L23.6,6.4 M23.6,5.2h-2.4c-0.7,0-1.2,0.5-1.2,1.2V26c0,0.7,0.5,1.2,1.2,1.2h2.4
			c0.7,0,1.2-0.5,1.2-1.2V6.4C24.8,5.7,24.2,5.2,23.6,5.2L23.6,5.2z"/>
	</g>
	<g>
		<path class="st1" d="M27.2,8.5v20h-2.4v-20H27.2 M27.2,7.3h-2.4c-0.7,0-1.2,0.5-1.2,1.2v20c0,0.7,0.5,1.2,1.2,1.2h2.4
			c0.7,0,1.2-0.5,1.2-1.2v-20C28.5,7.9,27.9,7.3,27.2,7.3L27.2,7.3z"/>
	</g>
	<g>
		<path class="st1" d="M30.8,6.4V26h-2.3V6.4L30.8,6.4 M30.8,5.2h-2.3c-0.7,0-1.2,0.5-1.2,1.2V26c0,0.7,0.5,1.2,1.2,1.2h2.3
			c0.7,0,1.2-0.5,1.2-1.2V6.4C32,5.7,31.4,5.2,30.8,5.2L30.8,5.2z"/>
	</g>
	<g>
		<path class="st1" d="M34.4,8.5v13.7h-2.3V8.5H34.4 M34.4,7.3h-2.3c-0.7,0-1.2,0.5-1.2,1.2v13.7c0,0.7,0.5,1.2,1.2,1.2h2.3
			c0.7,0,1.2-0.5,1.2-1.2V8.5C35.7,7.9,35,7.3,34.4,7.3L34.4,7.3z"/>
	</g>
	<g>
		<path class="st1" d="M38.1,12.1v10.9h-2.3V12.1H38.1 M38.1,10.8h-2.3c-0.7,0-1.2,0.5-1.2,1.2v10.9c0,0.7,0.5,1.2,1.2,1.2h2.3
			c0.7,0,1.2-0.5,1.2-1.2V12.1C39.3,11.3,38.7,10.8,38.1,10.8L38.1,10.8z"/>
	</g>
	<g>
		<path class="st2" d="M15.3,44.4c-0.9,0-1.5-0.2-1.8-0.6c-0.6-0.6-0.6-1.5-0.6-2.1v-0.2c0-0.7-0.7-21.5-0.7-21.6
			c0-0.1,0-0.4,0.1-0.5c0.1-0.1,0.2-0.2,0.5-0.2h9c0.1,0,0.4,0.1,0.5,0.1c0.1,0.1,0.1,0.2,0.1,0.5c0,0.4,0.1,3.4,3.8,3.4
			s3.8-3,3.8-3.4c0-0.4,0.2-0.6,0.6-0.6h9c0.1,0,0.4,0.1,0.5,0.2c0.1,0.1,0.1,0.2,0.1,0.5c0,0.2-0.7,20.8-0.7,21.6v0.2
			c0,0.6,0,1.5-0.6,2.1c-0.4,0.4-1.1,0.6-1.8,0.6H15.3z"/>
		<g>
			<path class="st1" d="M39,20c-0.2,5.9-0.7,20.7-0.7,21.3v0.2c0,0.4,0,1.1-0.3,1.5c-0.2,0.2-0.6,0.4-1.2,0.4H26H15
				c-0.7,0-1-0.2-1.1-0.3l0,0l0,0c-0.4-0.4-0.4-1.1-0.4-1.6v-0.2c0-0.7-0.5-15.4-0.7-21.3h8.5c0.1,1.5,1.2,4,4.7,4
				c3.5,0,4.5-2.5,4.7-4H39 M39.3,18.5h-9c-0.7,0-1.2,0.5-1.2,1.2c0,0.5-0.2,2.8-3.2,2.8s-3.2-2.3-3.2-2.8c0-0.6-0.6-1.2-1.2-1.2h-9
				c-0.4,0-0.6,0.1-0.9,0.4c-0.2,0.2-0.4,0.6-0.4,0.9c0.2,5.7,0.7,21,0.7,21.6c0,0.1,0,0.1,0,0.2c0,0.6,0,1.7,0.7,2.6
				c0.5,0.6,1.3,0.9,2.3,0.9h11h10.7c1,0,1.7-0.2,2.3-0.9c0.7-0.9,0.7-2,0.7-2.6c0-0.1,0-0.1,0-0.2c0-0.6,0.5-15.6,0.7-21.5v-0.1
				C40.5,19,40,18.5,39.3,18.5L39.3,18.5z"/>
		</g>
	</g>
	<g>
		<g>
			<path class="st1" d="M26,27.9c3.8,0,6.9,2.3,7,5.1c0,2.8-3.2,5.1-7,5.1c-3.9,0-7-2.3-7-5.1C19,30.3,22.2,27.9,26,27.9 M26,26.4
				c-4.6,0-8.5,2.9-8.5,6.6s3.8,6.6,8.5,6.6c4.6,0,8.5-2.9,8.5-6.6C34.4,29.4,30.7,26.4,26,26.4L26,26.4z"/>
		</g>
	</g>
</g>
</svg>
