<?xml version="1.0" encoding="utf-8"?>
<!-- Generator: Adobe Illustrator 24.3.0, SVG Export Plug-In . SVG Version: 6.00 Build 0)  -->
<svg version="1.1" id="Livello_1" xmlns="http://www.w3.org/2000/svg" xmlns:xlink="http://www.w3.org/1999/xlink" x="0px" y="0px"
	 viewBox="0 0 52 52" style="enable-background:new 0 0 52 52;" xml:space="preserve">
<style type="text/css">
	.st0{fill:none;stroke:#2256AA;stroke-width:1.5;stroke-miterlimit:10;}
</style>
<image style="display:none;overflow:visible;" width="512" height="512" xlink:href="../../../../../../../../Downloads/soda.png"  transform="matrix(8.888216e-02 0 0 8.888216e-02 3.2462 3.2462)">
</image>
<path class="st0" d="M38.4,19.7h-1.1l-1.4-3.9h-9H16.2l-1.4,3.9h-1.1c0,0-1.4,0-1.4,1.5s1.4,1.6,1.4,1.6l1.1,0l2.9,25.2h9.3h7.6
	l2.9-25.2l1.1,0c0,0,1.4,0,1.4-1.6S38.4,19.7,38.4,19.7z"/>
<line class="st0" x1="14.7" y1="22.7" x2="37.3" y2="22.7"/>
<line class="st0" x1="14.8" y1="19.7" x2="37.3" y2="19.7"/>
<path class="st0" d="M24.4,15.8v-5.7V9.7c0-1.1,0.6-2.1,1.5-2.6L27,6.6l7.7-2.7c0.2-0.1,0.4,0,0.4,0.2l0.6,2c0.1,0.2,0,0.4-0.2,0.4
	l-7.3,2.5c-0.4,0.1-0.7,0.5-0.7,0.9L27.3,16"/>
<ellipse class="st0" cx="26" cy="33.2" rx="4.9" ry="6.1"/>
</svg>
